# xmcd
#
# Track frame offsets:
#	150
#	19642
#	33637
#	50175
#	64010
#	77730
#	96957
#	114027
#	135275
#	152000
#	172305
#	188277
#	207612
#	222410
#	236340
#	253777
#	270045
#	286455
#	303062
#
# Disc length: 4209
#
# Revision: 2
# Processed by: cddbd v1.5.1PL0 Copyright (c) Steve Scherf et al.
# Submitted via: CDex 1.40Beta8
# Normalized: r0:DSETVAR1,TDELIM( - ),TSWAP
#
DISCID=01106f13
DTITLE=Various Artist - cream of country vol 4
DYEAR=1900
DGENRE=Country
TTITLE0=dixie chicks - goodbye earl
TTITLE1=alan jackson - pop a top
TTITLE2=jo dee messina - lesson in leavin
TTITLE3=tim mcgraw - something like that
TTITLE4=brooks and dunn - you'll always be loved by me
TTITLE5=lee anne womack and jason sellers - a little past rock
TTITLE6=kenny rogers - buy me a rose
TTITLE7=brad paisley - he didnt have to be
TTITLE8=she daisey - i will...but
TTITLE9=clint and lisa hartman black - when i said i do
TTITLE10=the kinleys - she aint the girl for you
TTITLE11=montgomery gentry - daddy wont sell the farm
TTITLE12=dixie chicks and asleep at the wheel - roly poly
TTITLE13=diamond reo - stuff
TTITLE14=chely wright - it was
TTITLE15=alabama - we made love
TTITLE16=sara evans - no place that far
TTITLE17=the bellamy brothers - vertical expression
TTITLE18=asleep at the wheel - end of the line
EXTD=ID3G: 2
EXTT0=
EXTT1=
EXTT2=
EXTT3=
EXTT4=
EXTT5=
EXTT6=
EXTT7=
EXTT8=
EXTT9=
EXTT10=
EXTT11=
EXTT12=
EXTT13=
EXTT14=
EXTT15=
EXTT16=
EXTT17=
EXTT18=
PLAYORDER=
